{
    "accessors": {
        "accessor_52": {
            "bufferView": "bufferView_67",
            "byteOffset": 0,
            "byteStride": 2,
            "componentType": 5123,
            "count": 4167,
            "max": [
                2069
            ],
            "min": [
                0
            ],
            "type": "SCALAR"
        },
        "accessor_55": {
            "bufferView": "bufferView_67",
            "byteOffset": 8334,
            "byteStride": 2,
            "componentType": 5123,
            "count": 321,
            "max": [
                3636
            ],
            "min": [
                0
            ],
            "type": "SCALAR"
        },
        "accessor_58": {
            "bufferView": "bufferView_67",
            "byteOffset": 8976,
            "byteStride": 2,
            "componentType": 5123,
            "count": 48,
            "max": [
                3739
            ],
            "min": [
                0
            ],
            "type": "SCALAR"
        },
        "accessor_61": {
            "bufferView": "bufferView_67",
            "byteOffset": 9072,
            "byteStride": 2,
            "componentType": 5123,
            "count": 12,
            "max": [
                3759
            ],
            "min": [
                0
            ],
            "type": "SCALAR"
        },
        "accessor_63": {
            "bufferView": "bufferView_68",
            "byteOffset": 0,
            "byteStride": 12,
            "componentType": 5126,
            "count": 3762,
            "max": [
                2.15168,
                2.14516,
                6.06329
            ],
            "min": [
                -2.3071,
                -3.14898,
                -1.19799
            ],
            "type": "VEC3"
        },
        "accessor_65": {
            "bufferView": "bufferView_68",
            "byteOffset": 45144,
            "byteStride": 12,
            "componentType": 5126,
            "count": 3762,
            "max": [
                1,
                1,
                1
            ],
            "min": [
                -1,
                -1,
                -1
            ],
            "type": "VEC3"
        }
    },
    "animations": {},
    "asset": {
        "generator": "collada2gltf@6779c094d694e951beeb1012d03d4faa1edb0ddf",
        "premultipliedAlpha": true,
        "profile": {
            "api": "WebGL",
            "version": "1.0.2"
        },
        "version": "1.0.1"
    },
    "bufferViews": {
        "bufferView_67": {
            "buffer": "blkhouse",
            "byteLength": 9096,
            "byteOffset": 0,
            "target": 34963
        },
        "bufferView_68": {
            "buffer": "blkhouse",
            "byteLength": 90288,
            "byteOffset": 9096,
            "target": 34962
        }
    },
    "buffers": {
        "blkhouse": {
            "byteLength": 99384,
            "type": "arraybuffer",
            "uri": "blkhouse.bin"
        }
    },
    "cameras": {
        "Camera-camera": {
            "name": "Camera",
            "perspective": {
                "aspectRatio": 1.77778,
                "yfov": 0.482375,
                "zfar": 100,
                "znear": 0.1
            },
            "type": "perspective"
        }
    },
    "extensionsUsed": [
        "KHR_materials_common"
    ],
    "materials": {
        "doortop-effect": {
            "extensions": {
                "KHR_materials_common": {
                    "doubleSided": false,
                    "jointCount": 0,
                    "technique": "PHONG",
                    "transparent": false,
                    "values": {
                        "ambient": [
                            0,
                            0,
                            0,
                            1
                        ],
                        "diffuse": [
                            0.00559633,
                            0.0134459,
                            0.020993,
                            1
                        ],
                        "emission": [
                            0,
                            0,
                            0,
                            1
                        ],
                        "shininess": 49,
                        "specular": [
                            0.25,
                            0.25,
                            0.25,
                            1
                        ]
                    }
                }
            },
            "name": "doortop"
        },
        "glass-effect": {
            "extensions": {
                "KHR_materials_common": {
                    "doubleSided": false,
                    "jointCount": 0,
                    "technique": "PHONG",
                    "transparent": false,
                    "values": {
                        "ambient": [
                            0,
                            0,
                            0,
                            1
                        ],
                        "diffuse": [
                            0.8,
                            0.447689,
                            0.597786,
                            1
                        ],
                        "emission": [
                            0,
                            0,
                            0,
                            1
                        ],
                        "shininess": 49,
                        "specular": [
                            0.25,
                            0.25,
                            0.25,
                            1
                        ]
                    }
                }
            },
            "name": "glass"
        },
        "roof-effect": {
            "extensions": {
                "KHR_materials_common": {
                    "doubleSided": false,
                    "jointCount": 0,
                    "technique": "PHONG",
                    "transparent": false,
                    "values": {
                        "ambient": [
                            0,
                            0,
                            0,
                            1
                        ],
                        "diffuse": [
                            0.00559633,
                            0.0134459,
                            0.020993,
                            1
                        ],
                        "emission": [
                            0,
                            0,
                            0,
                            1
                        ],
                        "shininess": 49,
                        "specular": [
                            0.25,
                            0.25,
                            0.25,
                            1
                        ]
                    }
                }
            },
            "name": "roof"
        },
        "wall-effect": {
            "extensions": {
                "KHR_materials_common": {
                    "doubleSided": false,
                    "jointCount": 0,
                    "technique": "PHONG",
                    "transparent": false,
                    "values": {
                        "ambient": [
                            0,
                            0,
                            0,
                            1
                        ],
                        "diffuse": [
                            0.8,
                            0.8,
                            0.8,
                            1
                        ],
                        "emission": [
                            0,
                            0,
                            0,
                            1
                        ],
                        "shininess": 49,
                        "specular": [
                            0.25,
                            0.25,
                            0.25,
                            1
                        ]
                    }
                }
            },
            "name": "wall"
        }
    },
    "meshes": {
        "Cube_001-mesh": {
            "name": "Cube.001",
            "primitives": [
                {
                    "attributes": {
                        "NORMAL": "accessor_65",
                        "POSITION": "accessor_63"
                    },
                    "indices": "accessor_52",
                    "material": "wall-effect",
                    "mode": 4
                },
                {
                    "attributes": {
                        "NORMAL": "accessor_65",
                        "POSITION": "accessor_63"
                    },
                    "indices": "accessor_55",
                    "material": "roof-effect",
                    "mode": 4
                },
                {
                    "attributes": {
                        "NORMAL": "accessor_65",
                        "POSITION": "accessor_63"
                    },
                    "indices": "accessor_58",
                    "material": "doortop-effect",
                    "mode": 4
                },
                {
                    "attributes": {
                        "NORMAL": "accessor_65",
                        "POSITION": "accessor_63"
                    },
                    "indices": "accessor_61",
                    "material": "glass-effect",
                    "mode": 4
                }
            ]
        }
    },
    "nodes": {
        "Camera": {
            "camera": "Camera-camera",
            "children": [],
            "matrix": [
                0.685921,
                0.727676,
                0,
                0,
                -0.324014,
                0.305421,
                0.895396,
                0,
                0.651558,
                -0.61417,
                0.445271,
                0,
                7.48113,
                -6.50764,
                5.34367,
                1
            ],
            "name": "Camera"
        },
        "Cube_001": {
            "children": [],
            "matrix": [
                2.52928,
                0,
                0,
                0,
                0,
                2.52928,
                -4.12071e-07,
                0,
                0,
                3.08264e-07,
                1.89211,
                0,
                -0.00981875,
                -0.00690232,
                2.28666,
                1
            ],
            "meshes": [
                "Cube_001-mesh"
            ],
            "name": "Cube_001"
        },
        "node_2": {
            "children": [
                "Camera",
                "Cube_001"
            ],
            "matrix": [
                1,
                0,
                0,
                0,
                0,
                0,
                -1,
                0,
                0,
                1,
                0,
                0,
                0,
                0,
                0,
                1
            ],
            "name": "Y_UP_Transform"
        }
    },
    "scene": "defaultScene",
    "scenes": {
        "defaultScene": {
            "nodes": [
                "node_2"
            ]
        }
    },
    "skins": {}
}